<svg xmlns="http://www.w3.org/2000/svg" viewBox="0 0 2000 2000"><defs><style>.cls-1{opacity:0.5;}.cls-2{fill:#4287f6;}.cls-3{fill:#fff;}</style></defs><g id="Layer_8" data-name="Layer 8"><path class="cls-2" d="M417.32,278.89,52.48,919.82s-63.56,80.14,0,176.86c53.85,81.94,310,531.84,387,667.38,22.08,38.87,55.78,70.09,96.73,88,17.09,7.49,35.58,12.78,53.71,12.78h846.78c.79,0,1.57,0,2.36,0,8,.34,75.73,0,122.46-103.55,1.83-4.05,3.83-8,6-11.9l363.18-641.28,20.46-36.12c7.71-12.59,19.3-36.9,23.29-69.75,3.13-25.77,1.34-56.9-15.31-85.27l-400.3-686.6c-33.49-57.45-94.26-94.14-160.75-95.39-1.34,0-2.69,0-4.06,0H617.43a144.61,144.61,0,0,0-66.13,16l-1.4.72A322.39,322.39,0,0,0,417.32,278.89Z"/><path class="cls-3" d="M982.24,1112.3,963,1134.59c-94.55,13.07-96.09,107.62-96.09,107.62L684.74,1419c-101.47-8.45-111.46-109.15-111.46-109.15l178.34-180.65c109.93-13.07,109.16-97.63,109.16-97.63l21.52-20.76,41.51,28.45,312.87-317.48,12.3-40,108.39-76.1,30.75,33.06L1312,744.85l-43.81,13.07L956.1,1071.55l26.14,40.75Z"/><path class="cls-3" d="M999.92,1058.49,1086,973.93s136.07,133,149.9,131.45c0,0,171.43-7.69,199.87,134.52l-4.61,15.38-113-65.34s-64.57,23.83-69.18,122.22l110.7,65.34L1352,1399s-119.92,8.45-169.89-47.66c0,0-29.21-16.92-30-122.23C1152.12,1229.14,1071.41,1114.6,999.92,1058.49Z"/><path class="cls-3" d="M1023.06,911.42,937,996S800.9,863,787.06,864.53c0,0-171.42,7.69-199.86-134.53l4.61-15.37,113,65.34S769.38,756.14,774,657.75L663.3,592.4,671,570.88s119.92-8.46,169.88,47.66c0,0,29.21,16.91,30,122.23C870.85,740.77,951.57,855.31,1023.06,911.42Z"/></g></svg>